<svg width="561" height="312" viewBox="0 0 561 312" fill="none" xmlns="http://www.w3.org/2000/svg">
<path d="M13 187.192L4.27273 187.192L4.27273 181.78L5.40625 181.78L5.40625 185.875L8.06534 185.875L8.06534 182.167L9.1946 182.167L9.1946 185.875L13 185.875L13 187.192ZM10.2855 176.526L6.45454 176.526L6.45454 175.248L13 175.248L13 176.501L11.8665 176.501L11.8665 176.569C12.2159 176.72 12.5071 176.961 12.7401 177.294C12.9702 177.623 13.0852 178.034 13.0852 178.525C13.0852 178.945 12.9929 179.318 12.8082 179.642C12.6207 179.963 12.3437 180.215 11.9773 180.4C11.6108 180.582 11.1577 180.673 10.6179 180.673L6.45454 180.673L6.45454 179.399L10.4645 179.399C10.9105 179.399 11.2656 179.275 11.5298 179.028C11.794 178.781 11.9261 178.46 11.9261 178.065C11.9261 177.826 11.8665 177.589 11.7472 177.353C11.6278 177.115 11.4474 176.917 11.206 176.761C10.9645 176.602 10.6577 176.524 10.2855 176.526ZM9.11364 172.262L13 172.262L13 173.536L6.45454 173.536L6.45454 172.313L7.51989 172.313L7.51989 172.232C7.17329 172.081 6.89489 171.846 6.68466 171.525C6.47443 171.201 6.36932 170.793 6.36932 170.302C6.36932 169.856 6.46307 169.465 6.65057 169.13C6.83523 168.795 7.11079 168.535 7.47727 168.35C7.84375 168.165 8.29687 168.073 8.83665 168.073L13 168.073L13 169.347L8.99006 169.347C8.51562 169.347 8.14489 169.471 7.87784 169.718C7.60795 169.965 7.47301 170.305 7.47301 170.736C7.47301 171.032 7.53693 171.295 7.66477 171.525C7.79261 171.752 7.98011 171.932 8.22727 172.066C8.47159 172.197 8.76704 172.262 9.11364 172.262ZM13.1278 163.914C13.1278 164.442 12.9929 164.914 12.723 165.329C12.4503 165.741 12.0625 166.064 11.5597 166.3C11.054 166.533 10.4474 166.65 9.74006 166.65C9.03267 166.65 8.42756 166.532 7.92471 166.296C7.42187 166.057 7.03693 165.731 6.76989 165.316C6.50284 164.901 6.36932 164.431 6.36932 163.905C6.36932 163.499 6.4375 163.172 6.57386 162.925C6.70738 162.675 6.86363 162.482 7.04261 162.346C7.22159 162.206 7.37926 162.099 7.51562 162.022L7.51562 161.945L4.27273 161.945L4.27273 160.671L13 160.671L13 161.915L11.9815 161.915L11.9815 162.022C12.1207 162.099 12.2798 162.209 12.4588 162.354C12.6378 162.496 12.794 162.692 12.9276 162.942C13.0611 163.192 13.1278 163.516 13.1278 163.914ZM12.0412 163.633C12.0412 163.266 11.9446 162.956 11.7514 162.704C11.5554 162.448 11.2841 162.255 10.9375 162.124C10.5909 161.991 10.1875 161.924 9.72727 161.924C9.27273 161.924 8.875 161.989 8.53409 162.12C8.19318 162.251 7.92756 162.442 7.73721 162.695C7.54687 162.948 7.4517 163.26 7.4517 163.633C7.4517 164.016 7.55114 164.336 7.75 164.591C7.94886 164.847 8.22017 165.04 8.56392 165.171C8.90767 165.299 9.29545 165.363 9.72727 165.363C10.1648 165.363 10.5582 165.297 10.9077 165.167C11.2571 165.036 11.5341 164.843 11.7386 164.587C11.9403 164.329 12.0412 164.01 12.0412 163.633ZM8.05256 153.948L8.2571 155.102C8.10937 155.151 7.96875 155.227 7.83523 155.333C7.7017 155.435 7.59233 155.574 7.5071 155.75C7.42187 155.926 7.37926 156.146 7.37926 156.411C7.37926 156.771 7.46023 157.073 7.62216 157.314C7.78125 157.556 7.98721 157.676 8.24006 157.676C8.45881 157.676 8.63494 157.595 8.76846 157.433C8.90199 157.271 9.01136 157.01 9.09659 156.649L9.33523 155.61C9.47443 155.007 9.68892 154.558 9.97869 154.263C10.2685 153.968 10.6449 153.82 11.108 153.82C11.5 153.82 11.8494 153.933 12.1562 154.161C12.4602 154.385 12.6989 154.699 12.8722 155.102C13.0455 155.503 13.1321 155.968 13.1321 156.496C13.1321 157.229 12.9759 157.827 12.6634 158.29C12.348 158.753 11.9006 159.037 11.321 159.142L11.1335 157.911C11.4545 157.834 11.6974 157.676 11.8622 157.438C12.0241 157.199 12.1051 156.888 12.1051 156.504C12.1051 156.087 12.0185 155.753 11.8452 155.503C11.669 155.253 11.4545 155.128 11.2017 155.128C10.9972 155.128 10.8253 155.205 10.6861 155.358C10.5469 155.509 10.4418 155.74 10.3707 156.053L10.1278 157.161C9.98864 157.771 9.76704 158.223 9.46307 158.516C9.15909 158.806 8.77415 158.95 8.30824 158.95C7.92187 158.95 7.58381 158.843 7.29403 158.627C7.00426 158.411 6.77841 158.112 6.61648 157.732C6.4517 157.351 6.36932 156.915 6.36932 156.423C6.36932 155.716 6.52273 155.159 6.82954 154.753C7.13352 154.347 7.54119 154.078 8.05256 153.948ZM9.37784 148.872C8.30966 148.872 7.3267 148.732 6.42898 148.45C5.53125 148.169 4.70312 147.759 3.9446 147.219L3.9446 146.051C4.22585 146.262 4.57102 146.458 4.98011 146.639C5.3892 146.821 5.83807 146.98 6.3267 147.117C6.8125 147.253 7.31676 147.36 7.83949 147.436C8.35937 147.513 8.87216 147.551 9.37784 147.551C10.054 147.551 10.7386 147.485 11.4318 147.351C12.125 147.218 12.7685 147.037 13.3622 146.81C13.956 146.583 14.4403 146.33 14.8153 146.051L14.8153 147.219C14.0568 147.759 13.2287 148.169 12.331 148.45C11.4332 148.732 10.4489 148.872 9.37784 148.872ZM13 144.708L6.45454 144.708L6.45454 143.434L13 143.434L13 144.708ZM5.4446 144.064C5.4446 144.286 5.37074 144.476 5.22301 144.635C5.07244 144.792 4.89346 144.87 4.68608 144.87C4.47585 144.87 4.29687 144.792 4.14915 144.635C3.99858 144.476 3.92329 144.286 3.92329 144.064C3.92329 143.843 3.99858 143.654 4.14915 143.498C4.29687 143.339 4.47585 143.259 4.68608 143.259C4.89346 143.259 5.07244 143.339 5.22301 143.498C5.37074 143.654 5.4446 143.843 5.4446 144.064ZM9.11363 140.445L13 140.445L13 141.72L6.45454 141.72L6.45454 140.497L7.51988 140.497L7.51988 140.416C7.17329 140.265 6.89488 140.029 6.68466 139.708C6.47443 139.384 6.36932 138.977 6.36932 138.485C6.36932 138.039 6.46307 137.649 6.65057 137.313C6.83522 136.978 7.11079 136.718 7.47727 136.534C7.84375 136.349 8.29687 136.257 8.83665 136.257L13 136.257L13 137.531L8.99005 137.531C8.51562 137.531 8.14488 137.654 7.87784 137.901C7.60795 138.149 7.47301 138.488 7.47301 138.92C7.47301 139.215 7.53693 139.478 7.66477 139.708C7.79261 139.936 7.98011 140.116 8.22727 140.249C8.47159 140.38 8.76704 140.445 9.11363 140.445ZM4.27272 128.078L13 128.078L13 129.399L5.59375 129.399L5.59375 129.45L6.95738 131.538L5.69602 131.538L4.27272 129.361L4.27272 128.078ZM13.1449 122.679C13.142 123.352 12.9645 123.927 12.6122 124.405C12.2599 124.882 11.7472 125.247 11.0739 125.5C10.4006 125.753 9.58949 125.879 8.64062 125.879C7.6946 125.879 6.88636 125.753 6.21591 125.5C5.54545 125.244 5.03409 124.878 4.68182 124.4C4.32954 123.92 4.15341 123.346 4.15341 122.679C4.15341 122.011 4.33096 121.439 4.68608 120.961C5.03835 120.484 5.54971 120.119 6.22017 119.866C6.88778 119.611 7.6946 119.483 8.64062 119.483C9.59233 119.483 10.4048 119.609 11.0781 119.862C11.7486 120.115 12.2614 120.48 12.6165 120.957C12.9687 121.434 13.1449 122.008 13.1449 122.679ZM12.0071 122.679C12.0071 122.088 11.7187 121.626 11.142 121.294C10.5653 120.959 9.73153 120.791 8.64062 120.791C7.91619 120.791 7.30397 120.868 6.80397 121.021C6.30113 121.172 5.92045 121.389 5.66193 121.673C5.40056 121.954 5.26988 122.29 5.26988 122.679C5.26988 123.267 5.55966 123.729 6.1392 124.064C6.71875 124.399 7.55255 124.568 8.64062 124.571C9.36789 124.571 9.98295 124.496 10.4858 124.345C10.9858 124.192 11.3651 123.974 11.6236 123.693C11.8793 123.412 12.0071 123.074 12.0071 122.679ZM13.1449 114.933C13.142 115.606 12.9645 116.181 12.6122 116.659C12.2599 117.136 11.7472 117.501 11.0739 117.754C10.4006 118.007 9.58949 118.133 8.64062 118.133C7.6946 118.133 6.88636 118.007 6.21591 117.754C5.54545 117.498 5.03409 117.132 4.68182 116.654C4.32954 116.174 4.15341 115.6 4.15341 114.933C4.15341 114.265 4.33096 113.693 4.68608 113.215C5.03835 112.738 5.54971 112.373 6.22017 112.12C6.88778 111.865 7.6946 111.737 8.64062 111.737C9.59233 111.737 10.4048 111.863 11.0781 112.116C11.7486 112.369 12.2614 112.734 12.6165 113.211C12.9687 113.688 13.1449 114.262 13.1449 114.933ZM12.0071 114.933C12.0071 114.342 11.7187 113.88 11.142 113.548C10.5653 113.213 9.73153 113.045 8.64062 113.045C7.91619 113.045 7.30397 113.122 6.80397 113.275C6.30113 113.426 5.92045 113.643 5.66193 113.927C5.40056 114.208 5.26988 114.544 5.26988 114.933C5.26988 115.521 5.55966 115.982 6.1392 116.318C6.71875 116.653 7.55255 116.822 8.64062 116.825C9.36789 116.825 9.98295 116.749 10.4858 116.599C10.9858 116.445 11.3651 116.228 11.6236 115.947C11.8793 115.666 12.0071 115.328 12.0071 114.933ZM10.7798 109.036L9.22443 109.045L9.22443 108.823L6.45454 106.215L6.45454 104.689L9.60795 107.664L9.60795 107.864L10.7798 109.036ZM13 110.208L4.27272 110.208L4.27272 108.934L13 108.934L13 110.208ZM13 106.074L9.8892 108.418L8.99858 107.54L13 104.51L13 106.074ZM9.37784 101.078C10.4489 101.078 11.4332 101.219 12.331 101.5C13.2287 101.781 14.0568 102.192 14.8153 102.731L14.8153 103.899C14.5341 103.689 14.1889 103.493 13.7798 103.311C13.3707 103.129 12.9233 102.97 12.4375 102.834C11.9489 102.697 11.4432 102.591 10.9205 102.514C10.3977 102.437 9.88352 102.399 9.37784 102.399C8.70454 102.399 8.0213 102.466 7.32812 102.599C6.63494 102.733 5.99147 102.913 5.39772 103.14C4.80397 103.368 4.3196 103.621 3.9446 103.899L3.9446 102.731C4.70312 102.192 5.53125 101.781 6.42897 101.5C7.3267 101.219 8.30966 101.078 9.37784 101.078Z" fill="#475467"/>
<path d="M35.3505 6.27273V15H34.2937V7.38068H34.2425L32.1119 8.79545V7.72159L34.2937 6.27273H35.3505ZM38.8619 13.8068L38.7937 14.267C38.7454 14.5909 38.6715 14.9375 38.5721 15.3068C38.4755 15.6761 38.3746 16.0241 38.2695 16.3509C38.1644 16.6776 38.0778 16.9375 38.0096 17.1307H37.2425C37.2795 16.9489 37.3278 16.7088 37.3874 16.4105C37.4471 16.1122 37.5067 15.7784 37.5664 15.4091C37.6289 15.0426 37.68 14.6676 37.7198 14.2841L37.771 13.8068H38.8619ZM43.25 15.1193C42.608 15.1193 42.0611 14.9446 41.6094 14.5952C41.1577 14.2429 40.8125 13.733 40.5739 13.0653C40.3352 12.3949 40.2159 11.5852 40.2159 10.6364C40.2159 9.69318 40.3352 8.88778 40.5739 8.22017C40.8153 7.54972 41.1619 7.03835 41.6136 6.68608C42.0682 6.33097 42.6136 6.15341 43.25 6.15341C43.8864 6.15341 44.4304 6.33097 44.8821 6.68608C45.3366 7.03835 45.6832 7.54972 45.9219 8.22017C46.1634 8.88778 46.2841 9.69318 46.2841 10.6364C46.2841 11.5852 46.1648 12.3949 45.9261 13.0653C45.6875 13.733 45.3423 14.2429 44.8906 14.5952C44.4389 14.9446 43.892 15.1193 43.25 15.1193ZM43.25 14.1818C43.8864 14.1818 44.3807 13.875 44.733 13.2614C45.0852 12.6477 45.2614 11.7727 45.2614 10.6364C45.2614 9.88068 45.1804 9.23722 45.0185 8.70597C44.8594 8.17472 44.6293 7.76989 44.3281 7.49148C44.0298 7.21307 43.6705 7.07386 43.25 7.07386C42.6193 7.07386 42.1264 7.38494 41.7713 8.0071C41.4162 8.62642 41.2386 9.50284 41.2386 10.6364C41.2386 11.392 41.3182 12.0341 41.4773 12.5625C41.6364 13.0909 41.8651 13.4929 42.1634 13.7685C42.4645 14.044 42.8267 14.1818 43.25 14.1818ZM50.75 15.1193C50.108 15.1193 49.5611 14.9446 49.1094 14.5952C48.6577 14.2429 48.3125 13.733 48.0739 13.0653C47.8352 12.3949 47.7159 11.5852 47.7159 10.6364C47.7159 9.69318 47.8352 8.88778 48.0739 8.22017C48.3153 7.54972 48.6619 7.03835 49.1136 6.68608C49.5682 6.33097 50.1136 6.15341 50.75 6.15341C51.3864 6.15341 51.9304 6.33097 52.3821 6.68608C52.8366 7.03835 53.1832 7.54972 53.4219 8.22017C53.6634 8.88778 53.7841 9.69318 53.7841 10.6364C53.7841 11.5852 53.6648 12.3949 53.4261 13.0653C53.1875 13.733 52.8423 14.2429 52.3906 14.5952C51.9389 14.9446 51.392 15.1193 50.75 15.1193ZM50.75 14.1818C51.3864 14.1818 51.8807 13.875 52.233 13.2614C52.5852 12.6477 52.7614 11.7727 52.7614 10.6364C52.7614 9.88068 52.6804 9.23722 52.5185 8.70597C52.3594 8.17472 52.1293 7.76989 51.8281 7.49148C51.5298 7.21307 51.1705 7.07386 50.75 7.07386C50.1193 7.07386 49.6264 7.38494 49.2713 8.0071C48.9162 8.62642 48.7386 9.50284 48.7386 10.6364C48.7386 11.392 48.8182 12.0341 48.9773 12.5625C49.1364 13.0909 49.3651 13.4929 49.6634 13.7685C49.9645 14.044 50.3267 14.1818 50.75 14.1818ZM58.25 15.1193C57.608 15.1193 57.0611 14.9446 56.6094 14.5952C56.1577 14.2429 55.8125 13.733 55.5739 13.0653C55.3352 12.3949 55.2159 11.5852 55.2159 10.6364C55.2159 9.69318 55.3352 8.88778 55.5739 8.22017C55.8153 7.54972 56.1619 7.03835 56.6136 6.68608C57.0682 6.33097 57.6136 6.15341 58.25 6.15341C58.8864 6.15341 59.4304 6.33097 59.8821 6.68608C60.3366 7.03835 60.6832 7.54972 60.9219 8.22017C61.1634 8.88778 61.2841 9.69318 61.2841 10.6364C61.2841 11.5852 61.1648 12.3949 60.9261 13.0653C60.6875 13.733 60.3423 14.2429 59.8906 14.5952C59.4389 14.9446 58.892 15.1193 58.25 15.1193ZM58.25 14.1818C58.8864 14.1818 59.3807 13.875 59.733 13.2614C60.0852 12.6477 60.2614 11.7727 60.2614 10.6364C60.2614 9.88068 60.1804 9.23722 60.0185 8.70597C59.8594 8.17472 59.6293 7.76989 59.3281 7.49148C59.0298 7.21307 58.6705 7.07386 58.25 7.07386C57.6193 7.07386 57.1264 7.38494 56.7713 8.0071C56.4162 8.62642 56.2386 9.50284 56.2386 10.6364C56.2386 11.392 56.3182 12.0341 56.4773 12.5625C56.6364 13.0909 56.8651 13.4929 57.1634 13.7685C57.4645 14.044 57.8267 14.1818 58.25 14.1818Z" fill="#475467"/>
<line x1="70.5" y1="11" x2="559.5" y2="11" stroke="#F2F4F7" stroke-linecap="round"/>
<path d="M43.3043 66.8193C42.7191 66.8193 42.2021 66.7156 41.7532 66.5083C41.3072 66.298 40.9592 66.0097 40.7092 65.6432C40.4592 65.2739 40.3356 64.8534 40.3384 64.3818C40.3356 64.0125 40.408 63.6716 40.5558 63.3591C40.7035 63.0438 40.9052 62.781 41.1609 62.5708C41.4194 62.3577 41.7077 62.2227 42.0259 62.1659V62.1148C41.6083 62.0068 41.2759 61.7725 41.0288 61.4117C40.7816 61.048 40.6594 60.6347 40.6623 60.1716C40.6594 59.7284 40.7717 59.3321 40.9989 58.9827C41.2262 58.6333 41.5387 58.3577 41.9364 58.156C42.337 57.9543 42.793 57.8534 43.3043 57.8534C43.81 57.8534 44.2617 57.9543 44.6594 58.156C45.0572 58.3577 45.3697 58.6333 45.5969 58.9827C45.8271 59.3321 45.9435 59.7284 45.9464 60.1716C45.9435 60.6347 45.8171 61.048 45.5671 61.4117C45.32 61.7725 44.9918 62.0068 44.5827 62.1148V62.1659C44.8981 62.2227 45.1822 62.3577 45.435 62.5708C45.6879 62.781 45.8896 63.0438 46.0401 63.3591C46.1907 63.6716 46.2674 64.0125 46.2702 64.3818C46.2674 64.8534 46.1396 65.2739 45.8867 65.6432C45.6367 66.0097 45.2887 66.298 44.8427 66.5083C44.3995 66.7156 43.8867 66.8193 43.3043 66.8193ZM43.3043 65.8818C43.6992 65.8818 44.0401 65.8179 44.3271 65.6901C44.614 65.5622 44.8356 65.3818 44.9918 65.1489C45.1481 64.9159 45.2276 64.6432 45.2305 64.3307C45.2276 64.0011 45.1424 63.71 44.9748 63.4571C44.8072 63.2043 44.5785 63.0054 44.2887 62.8605C44.0018 62.7156 43.6737 62.6432 43.3043 62.6432C42.9322 62.6432 42.5998 62.7156 42.3072 62.8605C42.0174 63.0054 41.7887 63.2043 41.6211 63.4571C41.4563 63.71 41.3754 64.0011 41.3782 64.3307C41.3754 64.6432 41.4506 64.9159 41.604 65.1489C41.7603 65.3818 41.9833 65.5622 42.2731 65.6901C42.5629 65.8179 42.9066 65.8818 43.3043 65.8818ZM43.3043 61.7398C43.6168 61.7398 43.8938 61.6773 44.1353 61.5523C44.3796 61.4273 44.5714 61.2526 44.7106 61.0281C44.8498 60.8037 44.9208 60.5409 44.9237 60.2398C44.9208 59.9443 44.8512 59.6872 44.7148 59.4685C44.5785 59.2469 44.3896 59.0764 44.1481 58.9571C43.9066 58.835 43.6254 58.7739 43.3043 58.7739C42.9776 58.7739 42.6921 58.835 42.4478 58.9571C42.2035 59.0764 42.0146 59.2469 41.881 59.4685C41.7475 59.6872 41.6822 59.9443 41.685 60.2398C41.6822 60.5409 41.7489 60.8037 41.8853 61.0281C42.0245 61.2526 42.2163 61.4273 42.4606 61.5523C42.7049 61.6773 42.9862 61.7398 43.3043 61.7398ZM50.75 66.8193C50.108 66.8193 49.5611 66.6446 49.1094 66.2952C48.6577 65.9429 48.3125 65.433 48.0739 64.7654C47.8352 64.0949 47.7159 63.2852 47.7159 62.3364C47.7159 61.3932 47.8352 60.5878 48.0739 59.9202C48.3153 59.2497 48.6619 58.7384 49.1136 58.3861C49.5682 58.031 50.1136 57.8534 50.75 57.8534C51.3864 57.8534 51.9304 58.031 52.3821 58.3861C52.8366 58.7384 53.1832 59.2497 53.4219 59.9202C53.6634 60.5878 53.7841 61.3932 53.7841 62.3364C53.7841 63.2852 53.6648 64.0949 53.4261 64.7654C53.1875 65.433 52.8423 65.9429 52.3906 66.2952C51.9389 66.6446 51.392 66.8193 50.75 66.8193ZM50.75 65.8818C51.3864 65.8818 51.8807 65.575 52.233 64.9614C52.5852 64.3477 52.7614 63.4727 52.7614 62.3364C52.7614 61.5807 52.6804 60.9372 52.5185 60.406C52.3594 59.8747 52.1293 59.4699 51.8281 59.1915C51.5298 58.9131 51.1705 58.7739 50.75 58.7739C50.1193 58.7739 49.6264 59.085 49.2713 59.7071C48.9162 60.3264 48.7386 61.2029 48.7386 62.3364C48.7386 63.0921 48.8182 63.7341 48.9773 64.2625C49.1364 64.7909 49.3651 65.1929 49.6634 65.4685C49.9645 65.744 50.3267 65.8818 50.75 65.8818ZM58.25 66.8193C57.608 66.8193 57.0611 66.6446 56.6094 66.2952C56.1577 65.9429 55.8125 65.433 55.5739 64.7654C55.3352 64.0949 55.2159 63.2852 55.2159 62.3364C55.2159 61.3932 55.3352 60.5878 55.5739 59.9202C55.8153 59.2497 56.1619 58.7384 56.6136 58.3861C57.0682 58.031 57.6136 57.8534 58.25 57.8534C58.8864 57.8534 59.4304 58.031 59.8821 58.3861C60.3366 58.7384 60.6832 59.2497 60.9219 59.9202C61.1634 60.5878 61.2841 61.3932 61.2841 62.3364C61.2841 63.2852 61.1648 64.0949 60.9261 64.7654C60.6875 65.433 60.3423 65.9429 59.8906 66.2952C59.4389 66.6446 58.892 66.8193 58.25 66.8193ZM58.25 65.8818C58.8864 65.8818 59.3807 65.575 59.733 64.9614C60.0852 64.3477 60.2614 63.4727 60.2614 62.3364C60.2614 61.5807 60.1804 60.9372 60.0185 60.406C59.8594 59.8747 59.6293 59.4699 59.3281 59.1915C59.0298 58.9131 58.6705 58.7739 58.25 58.7739C57.6193 58.7739 57.1264 59.085 56.7713 59.7071C56.4162 60.3264 56.2386 61.2029 56.2386 62.3364C56.2386 63.0921 56.3182 63.7341 56.4773 64.2625C56.6364 64.7909 56.8651 65.1929 57.1634 65.4685C57.4645 65.744 57.8267 65.8818 58.25 65.8818Z" fill="#475467"/>
<line x1="70.5" y1="62.7" x2="559.5" y2="62.7" stroke="#F2F4F7" stroke-linecap="round"/>
<path d="M43.3129 116.019C42.9549 116.014 42.5969 115.945 42.239 115.815C41.881 115.684 41.5543 115.464 41.2589 115.154C40.9634 114.842 40.7262 114.42 40.5472 113.889C40.3683 113.355 40.2788 112.684 40.2788 111.877C40.2788 111.105 40.3512 110.42 40.4961 109.823C40.641 109.224 40.8512 108.72 41.1268 108.311C41.4023 107.899 41.7347 107.586 42.1239 107.373C42.516 107.16 42.9577 107.053 43.4492 107.053C43.9379 107.053 44.3725 107.151 44.7532 107.347C45.1367 107.541 45.4492 107.811 45.6907 108.157C45.9322 108.504 46.0884 108.903 46.1594 109.355H45.1197C45.0231 108.963 44.8356 108.637 44.5572 108.379C44.2788 108.12 43.9094 107.991 43.4492 107.991C42.7731 107.991 42.2404 108.285 41.8512 108.873C41.4648 109.461 41.2702 110.286 41.2674 111.349H41.3356C41.4947 111.107 41.6836 110.901 41.9023 110.731C42.1239 110.558 42.3683 110.424 42.6353 110.33C42.9023 110.237 43.185 110.19 43.4833 110.19C43.9833 110.19 44.4407 110.315 44.8555 110.565C45.2702 110.812 45.6026 111.154 45.8526 111.592C46.1026 112.026 46.2276 112.525 46.2276 113.088C46.2276 113.627 46.1069 114.122 45.8654 114.57C45.6239 115.017 45.2844 115.372 44.8469 115.636C44.4123 115.897 43.9009 116.025 43.3129 116.019ZM43.3129 115.082C43.6708 115.082 43.9918 114.992 44.2759 114.813C44.5629 114.634 44.7887 114.394 44.9535 114.093C45.1211 113.792 45.2049 113.457 45.2049 113.088C45.2049 112.727 45.1239 112.399 44.962 112.103C44.8029 111.805 44.5827 111.568 44.3015 111.392C44.0231 111.215 43.7049 111.127 43.3469 111.127C43.0771 111.127 42.8256 111.181 42.5927 111.289C42.3597 111.394 42.1552 111.539 41.979 111.724C41.8058 111.909 41.6694 112.12 41.57 112.359C41.4705 112.595 41.4208 112.843 41.4208 113.105C41.4208 113.451 41.5018 113.775 41.6637 114.076C41.8285 114.377 42.0529 114.62 42.337 114.805C42.6239 114.99 42.9492 115.082 43.3129 115.082ZM50.75 116.019C50.108 116.019 49.5611 115.845 49.1094 115.495C48.6577 115.143 48.3125 114.633 48.0739 113.965C47.8352 113.295 47.7159 112.485 47.7159 111.536C47.7159 110.593 47.8352 109.788 48.0739 109.12C48.3153 108.45 48.6619 107.938 49.1136 107.586C49.5682 107.231 50.1136 107.053 50.75 107.053C51.3864 107.053 51.9304 107.231 52.3821 107.586C52.8366 107.938 53.1832 108.45 53.4219 109.12C53.6634 109.788 53.7841 110.593 53.7841 111.536C53.7841 112.485 53.6648 113.295 53.4261 113.965C53.1875 114.633 52.8423 115.143 52.3906 115.495C51.9389 115.845 51.392 116.019 50.75 116.019ZM50.75 115.082C51.3864 115.082 51.8807 114.775 52.233 114.161C52.5852 113.548 52.7614 112.673 52.7614 111.536C52.7614 110.781 52.6804 110.137 52.5185 109.606C52.3594 109.075 52.1293 108.67 51.8281 108.392C51.5298 108.113 51.1705 107.974 50.75 107.974C50.1193 107.974 49.6264 108.285 49.2713 108.907C48.9162 109.526 48.7386 110.403 48.7386 111.536C48.7386 112.292 48.8182 112.934 48.9773 113.463C49.1364 113.991 49.3651 114.393 49.6634 114.668C49.9645 114.944 50.3267 115.082 50.75 115.082ZM58.25 116.019C57.608 116.019 57.0611 115.845 56.6094 115.495C56.1577 115.143 55.8125 114.633 55.5739 113.965C55.3352 113.295 55.2159 112.485 55.2159 111.536C55.2159 110.593 55.3352 109.788 55.5739 109.12C55.8153 108.45 56.1619 107.938 56.6136 107.586C57.0682 107.231 57.6136 107.053 58.25 107.053C58.8864 107.053 59.4304 107.231 59.8821 107.586C60.3366 107.938 60.6832 108.45 60.9219 109.12C61.1634 109.788 61.2841 110.593 61.2841 111.536C61.2841 112.485 61.1648 113.295 60.9261 113.965C60.6875 114.633 60.3423 115.143 59.8906 115.495C59.4389 115.845 58.892 116.019 58.25 116.019ZM58.25 115.082C58.8864 115.082 59.3807 114.775 59.733 114.161C60.0852 113.548 60.2614 112.673 60.2614 111.536C60.2614 110.781 60.1804 110.137 60.0185 109.606C59.8594 109.075 59.6293 108.67 59.3281 108.392C59.0298 108.113 58.6705 107.974 58.25 107.974C57.6193 107.974 57.1264 108.285 56.7713 108.907C56.4162 109.526 56.2386 110.403 56.2386 111.536C56.2386 112.292 56.3182 112.934 56.4773 113.463C56.6364 113.991 56.8651 114.393 57.1634 114.668C57.4645 114.944 57.8267 115.082 58.25 115.082Z" fill="#475467"/>
<line x1="70.5" y1="111.9" x2="559.5" y2="111.9" stroke="#F2F4F7" stroke-linecap="round"/>
<path d="M39.9996 163.31V162.441L43.8349 156.373H44.4656V157.719H44.0394L41.1417 162.305V162.373H46.3065V163.31H39.9996ZM44.1076 165.1V163.046V162.641V156.373H45.1133V165.1H44.1076ZM50.75 165.219C50.108 165.219 49.5611 165.045 49.1094 164.695C48.6577 164.343 48.3125 163.833 48.0739 163.165C47.8352 162.495 47.7159 161.685 47.7159 160.736C47.7159 159.793 47.8352 158.988 48.0739 158.32C48.3153 157.65 48.6619 157.138 49.1136 156.786C49.5682 156.431 50.1136 156.253 50.75 156.253C51.3864 156.253 51.9304 156.431 52.3821 156.786C52.8366 157.138 53.1832 157.65 53.4219 158.32C53.6634 158.988 53.7841 159.793 53.7841 160.736C53.7841 161.685 53.6648 162.495 53.4261 163.165C53.1875 163.833 52.8423 164.343 52.3906 164.695C51.9389 165.045 51.392 165.219 50.75 165.219ZM50.75 164.282C51.3864 164.282 51.8807 163.975 52.233 163.361C52.5852 162.748 52.7614 161.873 52.7614 160.736C52.7614 159.981 52.6804 159.337 52.5185 158.806C52.3594 158.275 52.1293 157.87 51.8281 157.591C51.5298 157.313 51.1705 157.174 50.75 157.174C50.1193 157.174 49.6264 157.485 49.2713 158.107C48.9162 158.726 48.7386 159.603 48.7386 160.736C48.7386 161.492 48.8182 162.134 48.9773 162.663C49.1364 163.191 49.3651 163.593 49.6634 163.868C49.9645 164.144 50.3267 164.282 50.75 164.282ZM58.25 165.219C57.608 165.219 57.0611 165.045 56.6094 164.695C56.1577 164.343 55.8125 163.833 55.5739 163.165C55.3352 162.495 55.2159 161.685 55.2159 160.736C55.2159 159.793 55.3352 158.988 55.5739 158.32C55.8153 157.65 56.1619 157.138 56.6136 156.786C57.0682 156.431 57.6136 156.253 58.25 156.253C58.8864 156.253 59.4304 156.431 59.8821 156.786C60.3366 157.138 60.6832 157.65 60.9219 158.32C61.1634 158.988 61.2841 159.793 61.2841 160.736C61.2841 161.685 61.1648 162.495 60.9261 163.165C60.6875 163.833 60.3423 164.343 59.8906 164.695C59.4389 165.045 58.892 165.219 58.25 165.219ZM58.25 164.282C58.8864 164.282 59.3807 163.975 59.733 163.361C60.0852 162.748 60.2614 161.873 60.2614 160.736C60.2614 159.981 60.1804 159.337 60.0185 158.806C59.8594 158.275 59.6293 157.87 59.3281 157.591C59.0298 157.313 58.6705 157.174 58.25 157.174C57.6193 157.174 57.1264 157.485 56.7713 158.107C56.4162 158.726 56.2386 159.603 56.2386 160.736C56.2386 161.492 56.3182 162.134 56.4773 162.663C56.6364 163.191 56.8651 163.593 57.1634 163.868C57.4645 164.144 57.8267 164.282 58.25 164.282Z" fill="#475467"/>
<line x1="70.5" y1="161.1" x2="559.5" y2="161.1" stroke="#F2F4F7" stroke-linecap="round"/>
<path d="M40.6378 214.3V213.533L43.5185 210.38C43.8565 210.01 44.1349 209.689 44.3537 209.416C44.5724 209.141 44.7344 208.882 44.8395 208.641C44.9474 208.397 45.0014 208.141 45.0014 207.874C45.0014 207.567 44.9276 207.301 44.7798 207.077C44.6349 206.853 44.4361 206.679 44.1832 206.557C43.9304 206.435 43.6463 206.374 43.331 206.374C42.9957 206.374 42.7031 206.443 42.4531 206.583C42.206 206.719 42.0142 206.911 41.8778 207.158C41.7443 207.405 41.6776 207.695 41.6776 208.027H40.6719C40.6719 207.516 40.7898 207.067 41.0256 206.681C41.2614 206.294 41.5824 205.993 41.9886 205.777C42.3977 205.561 42.8565 205.453 43.3651 205.453C43.8764 205.453 44.3295 205.561 44.7244 205.777C45.1193 205.993 45.429 206.284 45.6534 206.651C45.8778 207.017 45.9901 207.425 45.9901 207.874C45.9901 208.195 45.9318 208.509 45.8153 208.816C45.7017 209.12 45.5028 209.459 45.2188 209.834C44.9375 210.206 44.5469 210.661 44.0469 211.198L42.0866 213.294V213.362H46.1435V214.3H40.6378ZM50.75 214.419C50.108 214.419 49.5611 214.245 49.1094 213.895C48.6577 213.543 48.3125 213.033 48.0739 212.365C47.8352 211.695 47.7159 210.885 47.7159 209.936C47.7159 208.993 47.8352 208.188 48.0739 207.52C48.3153 206.85 48.6619 206.338 49.1136 205.986C49.5682 205.631 50.1136 205.453 50.75 205.453C51.3864 205.453 51.9304 205.631 52.3821 205.986C52.8366 206.338 53.1832 206.85 53.4219 207.52C53.6634 208.188 53.7841 208.993 53.7841 209.936C53.7841 210.885 53.6648 211.695 53.4261 212.365C53.1875 213.033 52.8423 213.543 52.3906 213.895C51.9389 214.245 51.392 214.419 50.75 214.419ZM50.75 213.482C51.3864 213.482 51.8807 213.175 52.233 212.561C52.5852 211.948 52.7614 211.073 52.7614 209.936C52.7614 209.181 52.6804 208.537 52.5185 208.006C52.3594 207.475 52.1293 207.07 51.8281 206.791C51.5298 206.513 51.1705 206.374 50.75 206.374C50.1193 206.374 49.6264 206.685 49.2713 207.307C48.9162 207.926 48.7386 208.803 48.7386 209.936C48.7386 210.692 48.8182 211.334 48.9773 211.862C49.1364 212.391 49.3651 212.793 49.6634 213.068C49.9645 213.344 50.3267 213.482 50.75 213.482ZM58.25 214.419C57.608 214.419 57.0611 214.245 56.6094 213.895C56.1577 213.543 55.8125 213.033 55.5739 212.365C55.3352 211.695 55.2159 210.885 55.2159 209.936C55.2159 208.993 55.3352 208.188 55.5739 207.52C55.8153 206.85 56.1619 206.338 56.6136 205.986C57.0682 205.631 57.6136 205.453 58.25 205.453C58.8864 205.453 59.4304 205.631 59.8821 205.986C60.3366 206.338 60.6832 206.85 60.9219 207.52C61.1634 208.188 61.2841 208.993 61.2841 209.936C61.2841 210.885 61.1648 211.695 60.9261 212.365C60.6875 213.033 60.3423 213.543 59.8906 213.895C59.4389 214.245 58.892 214.419 58.25 214.419ZM58.25 213.482C58.8864 213.482 59.3807 213.175 59.733 212.561C60.0852 211.948 60.2614 211.073 60.2614 209.936C60.2614 209.181 60.1804 208.537 60.0185 208.006C59.8594 207.475 59.6293 207.07 59.3281 206.791C59.0298 206.513 58.6705 206.374 58.25 206.374C57.6193 206.374 57.1264 206.685 56.7713 207.307C56.4162 207.926 56.2386 208.803 56.2386 209.936C56.2386 210.692 56.3182 211.334 56.4773 211.862C56.6364 212.391 56.8651 212.793 57.1634 213.068C57.4645 213.344 57.8267 213.482 58.25 213.482Z" fill="#475467"/>
<line x1="70.5" y1="210.3" x2="559.5" y2="210.3" stroke="#F2F4F7" stroke-linecap="round"/>
<path d="M58.25 263.619C57.608 263.619 57.0611 263.445 56.6094 263.095C56.1577 262.743 55.8125 262.233 55.5739 261.565C55.3352 260.895 55.2159 260.085 55.2159 259.136C55.2159 258.193 55.3352 257.388 55.5739 256.72C55.8153 256.05 56.1619 255.538 56.6136 255.186C57.0682 254.831 57.6136 254.653 58.25 254.653C58.8864 254.653 59.4304 254.831 59.8821 255.186C60.3366 255.538 60.6832 256.05 60.9219 256.72C61.1634 257.388 61.2841 258.193 61.2841 259.136C61.2841 260.085 61.1648 260.895 60.9261 261.565C60.6875 262.233 60.3423 262.743 59.8906 263.095C59.4389 263.445 58.892 263.619 58.25 263.619ZM58.25 262.682C58.8864 262.682 59.3807 262.375 59.733 261.761C60.0852 261.148 60.2614 260.273 60.2614 259.136C60.2614 258.381 60.1804 257.737 60.0185 257.206C59.8594 256.675 59.6293 256.27 59.3281 255.991C59.0298 255.713 58.6705 255.574 58.25 255.574C57.6193 255.574 57.1264 255.885 56.7713 256.507C56.4162 257.126 56.2386 258.003 56.2386 259.136C56.2386 259.892 56.3182 260.534 56.4773 261.062C56.6364 261.591 56.8651 261.993 57.1634 262.268C57.4645 262.544 57.8267 262.682 58.25 262.682Z" fill="#475467"/>
<line x1="70.5" y1="259.5" x2="559.5" y2="259.5" stroke="#F2F4F7" stroke-linecap="round"/>
<path d="M90.7493 272.273H91.8061V278.511C91.8061 279.068 91.7038 279.541 91.4993 279.93C91.2947 280.32 91.0064 280.615 90.6342 280.817C90.2621 281.018 89.8232 281.119 89.3175 281.119C88.8402 281.119 88.4155 281.033 88.0433 280.859C87.6712 280.683 87.3786 280.433 87.1655 280.109C86.9524 279.786 86.8459 279.401 86.8459 278.955H87.8857C87.8857 279.202 87.9467 279.418 88.0689 279.602C88.1939 279.784 88.3643 279.926 88.5803 280.028C88.7962 280.131 89.0419 280.182 89.3175 280.182C89.6214 280.182 89.88 280.118 90.093 279.99C90.3061 279.862 90.468 279.675 90.5788 279.428C90.6925 279.178 90.7493 278.872 90.7493 278.511V272.273ZM95.7138 281.153C95.299 281.153 94.9226 281.075 94.5845 280.919C94.2464 280.76 93.978 280.531 93.7791 280.233C93.5803 279.932 93.4808 279.568 93.4808 279.142C93.4808 278.767 93.5547 278.463 93.7024 278.23C93.8501 277.994 94.0476 277.81 94.2947 277.676C94.5419 277.543 94.8146 277.443 95.1129 277.378C95.4141 277.31 95.7166 277.256 96.0206 277.216C96.4183 277.165 96.7408 277.126 96.9879 277.101C97.2379 277.072 97.4197 277.026 97.5334 276.96C97.6499 276.895 97.7081 276.781 97.7081 276.619V276.585C97.7081 276.165 97.593 275.838 97.3629 275.605C97.1357 275.372 96.7905 275.256 96.3274 275.256C95.8473 275.256 95.4709 275.361 95.1982 275.571C94.9254 275.781 94.7337 276.006 94.6229 276.244L93.6683 275.903C93.8388 275.506 94.0661 275.196 94.3501 274.974C94.6371 274.75 94.9496 274.594 95.2876 274.506C95.6286 274.415 95.9638 274.369 96.2933 274.369C96.5036 274.369 96.745 274.395 97.0178 274.446C97.2933 274.494 97.5589 274.595 97.8146 274.749C98.0732 274.902 98.2876 275.134 98.4581 275.443C98.6286 275.753 98.7138 276.168 98.7138 276.688V281H97.7081V280.114H97.657C97.5888 280.256 97.4751 280.408 97.3161 280.57C97.157 280.732 96.9453 280.869 96.6811 280.983C96.4169 281.097 96.0945 281.153 95.7138 281.153ZM95.8672 280.25C96.2649 280.25 96.6001 280.172 96.8729 280.016C97.1484 279.859 97.3558 279.658 97.495 279.411C97.6371 279.163 97.7081 278.903 97.7081 278.631V277.71C97.6655 277.761 97.5717 277.808 97.4268 277.851C97.2848 277.891 97.12 277.926 96.9325 277.957C96.7479 277.986 96.5675 278.011 96.3913 278.034C96.218 278.054 96.0774 278.071 95.9695 278.085C95.7081 278.119 95.4638 278.175 95.2365 278.251C95.0121 278.325 94.8303 278.437 94.6911 278.588C94.5547 278.736 94.4865 278.937 94.4865 279.193C94.4865 279.543 94.6158 279.807 94.8743 279.986C95.1357 280.162 95.4666 280.25 95.8672 280.25ZM101.555 277.062V281H100.549V274.455H101.521V275.477H101.606C101.76 275.145 101.993 274.878 102.305 274.676C102.618 274.472 103.021 274.369 103.515 274.369C103.958 274.369 104.346 274.46 104.679 274.642C105.011 274.821 105.27 275.094 105.454 275.46C105.639 275.824 105.731 276.284 105.731 276.841V281H104.725V276.909C104.725 276.395 104.592 275.994 104.325 275.707C104.058 275.418 103.691 275.273 103.225 275.273C102.904 275.273 102.618 275.342 102.365 275.482C102.115 275.621 101.917 275.824 101.772 276.091C101.627 276.358 101.555 276.682 101.555 277.062Z" fill="#475467"/>
<path d="M125.511 281V272.273H130.744V273.21H126.568V276.159H130.352V277.097H126.568V281H125.511ZM134.682 281.136C134.051 281.136 133.507 280.997 133.05 280.719C132.595 280.438 132.244 280.045 131.997 279.543C131.753 279.037 131.631 278.449 131.631 277.778C131.631 277.108 131.753 276.517 131.997 276.006C132.244 275.491 132.588 275.091 133.028 274.804C133.472 274.514 133.989 274.369 134.58 274.369C134.92 274.369 135.257 274.426 135.59 274.54C135.922 274.653 136.224 274.838 136.497 275.094C136.77 275.347 136.987 275.682 137.149 276.099C137.311 276.517 137.392 277.031 137.392 277.642V278.068H132.347V277.199H136.369C136.369 276.83 136.295 276.5 136.148 276.21C136.003 275.92 135.795 275.692 135.526 275.524C135.259 275.357 134.943 275.273 134.58 275.273C134.179 275.273 133.832 275.372 133.54 275.571C133.25 275.767 133.027 276.023 132.871 276.338C132.715 276.653 132.636 276.991 132.636 277.352V277.932C132.636 278.426 132.722 278.845 132.892 279.189C133.065 279.53 133.305 279.79 133.612 279.969C133.919 280.145 134.276 280.233 134.682 280.233C134.946 280.233 135.185 280.196 135.398 280.122C135.614 280.045 135.8 279.932 135.956 279.781C136.112 279.628 136.233 279.437 136.318 279.21L137.29 279.483C137.188 279.812 137.016 280.102 136.774 280.352C136.533 280.599 136.234 280.793 135.879 280.932C135.524 281.068 135.125 281.136 134.682 281.136ZM139.058 281V272.273H140.064V275.494H140.149C140.223 275.381 140.325 275.236 140.456 275.06C140.59 274.881 140.78 274.722 141.027 274.582C141.277 274.44 141.615 274.369 142.041 274.369C142.592 274.369 143.078 274.507 143.499 274.783C143.919 275.058 144.247 275.449 144.483 275.955C144.719 276.46 144.837 277.057 144.837 277.744C144.837 278.438 144.719 279.038 144.483 279.547C144.247 280.053 143.92 280.445 143.503 280.723C143.085 280.999 142.604 281.136 142.058 281.136C141.638 281.136 141.301 281.067 141.048 280.928C140.795 280.786 140.601 280.625 140.465 280.446C140.328 280.264 140.223 280.114 140.149 279.994H140.03V281H139.058ZM140.047 277.727C140.047 278.222 140.119 278.658 140.264 279.036C140.409 279.411 140.621 279.705 140.899 279.918C141.178 280.128 141.519 280.233 141.922 280.233C142.342 280.233 142.693 280.122 142.974 279.901C143.259 279.676 143.472 279.375 143.614 278.997C143.759 278.616 143.831 278.193 143.831 277.727C143.831 277.267 143.76 276.852 143.618 276.483C143.479 276.111 143.267 275.817 142.983 275.601C142.702 275.382 142.348 275.273 141.922 275.273C141.513 275.273 141.169 275.376 140.891 275.584C140.612 275.788 140.402 276.075 140.26 276.445C140.118 276.811 140.047 277.239 140.047 277.727Z" fill="#475467"/>
<path d="M164.015 272.273H165.276L168.242 279.517H168.344L171.31 272.273H172.572V281H171.583V274.369H171.498L168.771 281H167.816L165.089 274.369H165.003V281H164.015V272.273ZM176.48 281.153C176.066 281.153 175.689 281.075 175.351 280.919C175.013 280.76 174.745 280.531 174.546 280.233C174.347 279.932 174.247 279.568 174.247 279.142C174.247 278.767 174.321 278.463 174.469 278.23C174.617 277.994 174.814 277.81 175.061 277.676C175.309 277.543 175.581 277.443 175.88 277.378C176.181 277.31 176.483 277.256 176.787 277.216C177.185 277.165 177.507 277.126 177.755 277.101C178.005 277.072 178.186 277.026 178.3 276.96C178.416 276.895 178.475 276.781 178.475 276.619V276.585C178.475 276.165 178.36 275.838 178.13 275.605C177.902 275.372 177.557 275.256 177.094 275.256C176.614 275.256 176.237 275.361 175.965 275.571C175.692 275.781 175.5 276.006 175.389 276.244L174.435 275.903C174.605 275.506 174.833 275.196 175.117 274.974C175.404 274.75 175.716 274.594 176.054 274.506C176.395 274.415 176.73 274.369 177.06 274.369C177.27 274.369 177.512 274.395 177.784 274.446C178.06 274.494 178.326 274.595 178.581 274.749C178.84 274.902 179.054 275.134 179.225 275.443C179.395 275.753 179.48 276.168 179.48 276.688V281H178.475V280.114H178.424C178.355 280.256 178.242 280.408 178.083 280.57C177.924 280.732 177.712 280.869 177.448 280.983C177.184 281.097 176.861 281.153 176.48 281.153ZM176.634 280.25C177.032 280.25 177.367 280.172 177.639 280.016C177.915 279.859 178.122 279.658 178.262 279.411C178.404 279.163 178.475 278.903 178.475 278.631V277.71C178.432 277.761 178.338 277.808 178.193 277.851C178.051 277.891 177.887 277.926 177.699 277.957C177.514 277.986 177.334 278.011 177.158 278.034C176.985 278.054 176.844 278.071 176.736 278.085C176.475 278.119 176.23 278.175 176.003 278.251C175.779 278.325 175.597 278.437 175.458 278.588C175.321 278.736 175.253 278.937 175.253 279.193C175.253 279.543 175.382 279.807 175.641 279.986C175.902 280.162 176.233 280.25 176.634 280.25ZM181.316 281V274.455H182.288V275.443H182.356C182.475 275.119 182.691 274.857 183.003 274.655C183.316 274.453 183.668 274.352 184.06 274.352C184.134 274.352 184.226 274.354 184.337 274.357C184.448 274.359 184.532 274.364 184.589 274.369V275.392C184.555 275.384 184.476 275.371 184.354 275.354C184.235 275.334 184.109 275.324 183.975 275.324C183.657 275.324 183.373 275.391 183.123 275.524C182.876 275.655 182.68 275.837 182.535 276.07C182.393 276.3 182.322 276.562 182.322 276.858V281H181.316Z" fill="#475467"/>
<path d="M203.835 281H202.727L205.932 272.273H207.023L210.227 281H209.119L206.511 273.653H206.443L203.835 281ZM204.244 277.591H208.71V278.528H204.244V277.591ZM211.45 283.455V274.455H212.422V275.494H212.541C212.615 275.381 212.717 275.236 212.848 275.06C212.981 274.881 213.172 274.722 213.419 274.582C213.669 274.44 214.007 274.369 214.433 274.369C214.984 274.369 215.47 274.507 215.891 274.783C216.311 275.058 216.639 275.449 216.875 275.955C217.111 276.46 217.229 277.057 217.229 277.744C217.229 278.438 217.111 279.038 216.875 279.547C216.639 280.053 216.312 280.445 215.895 280.723C215.477 280.999 214.996 281.136 214.45 281.136C214.03 281.136 213.693 281.067 213.44 280.928C213.187 280.786 212.993 280.625 212.856 280.446C212.72 280.264 212.615 280.114 212.541 279.994H212.456V283.455H211.45ZM212.439 277.727C212.439 278.222 212.511 278.658 212.656 279.036C212.801 279.411 213.013 279.705 213.291 279.918C213.57 280.128 213.91 280.233 214.314 280.233C214.734 280.233 215.085 280.122 215.366 279.901C215.651 279.676 215.864 279.375 216.006 278.997C216.151 278.616 216.223 278.193 216.223 277.727C216.223 277.267 216.152 276.852 216.01 276.483C215.871 276.111 215.659 275.817 215.375 275.601C215.094 275.382 214.74 275.273 214.314 275.273C213.905 275.273 213.561 275.376 213.283 275.584C213.004 275.788 212.794 276.075 212.652 276.445C212.51 276.811 212.439 277.239 212.439 277.727ZM218.763 281V274.455H219.734V275.443H219.803C219.922 275.119 220.138 274.857 220.45 274.655C220.763 274.453 221.115 274.352 221.507 274.352C221.581 274.352 221.673 274.354 221.784 274.357C221.895 274.359 221.979 274.364 222.035 274.369V275.392C222.001 275.384 221.923 275.371 221.801 275.354C221.682 275.334 221.555 275.324 221.422 275.324C221.104 275.324 220.82 275.391 220.57 275.524C220.322 275.655 220.126 275.837 219.981 276.07C219.839 276.3 219.768 276.562 219.768 276.858V281H218.763Z" fill="#475467"/>
<path d="M240.934 272.273H242.195L245.161 279.517H245.263L248.229 272.273H249.491V281H248.502V274.369H248.417L245.689 281H244.735L242.008 274.369H241.922V281H240.934V272.273ZM253.399 281.153C252.985 281.153 252.608 281.075 252.27 280.919C251.932 280.76 251.664 280.531 251.465 280.233C251.266 279.932 251.166 279.568 251.166 279.142C251.166 278.767 251.24 278.463 251.388 278.23C251.536 277.994 251.733 277.81 251.98 277.676C252.227 277.543 252.5 277.443 252.798 277.378C253.1 277.31 253.402 277.256 253.706 277.216C254.104 277.165 254.426 277.126 254.673 277.101C254.923 277.072 255.105 277.026 255.219 276.96C255.335 276.895 255.394 276.781 255.394 276.619V276.585C255.394 276.165 255.279 275.838 255.048 275.605C254.821 275.372 254.476 275.256 254.013 275.256C253.533 275.256 253.156 275.361 252.884 275.571C252.611 275.781 252.419 276.006 252.308 276.244L251.354 275.903C251.524 275.506 251.752 275.196 252.036 274.974C252.323 274.75 252.635 274.594 252.973 274.506C253.314 274.415 253.649 274.369 253.979 274.369C254.189 274.369 254.431 274.395 254.703 274.446C254.979 274.494 255.244 274.595 255.5 274.749C255.759 274.902 255.973 275.134 256.144 275.443C256.314 275.753 256.399 276.168 256.399 276.688V281H255.394V280.114H255.343C255.274 280.256 255.161 280.408 255.002 280.57C254.843 280.732 254.631 280.869 254.367 280.983C254.102 281.097 253.78 281.153 253.399 281.153ZM253.553 280.25C253.95 280.25 254.286 280.172 254.558 280.016C254.834 279.859 255.041 279.658 255.181 279.411C255.323 279.163 255.394 278.903 255.394 278.631V277.71C255.351 277.761 255.257 277.808 255.112 277.851C254.97 277.891 254.806 277.926 254.618 277.957C254.433 277.986 254.253 278.011 254.077 278.034C253.904 278.054 253.763 278.071 253.655 278.085C253.394 278.119 253.149 278.175 252.922 278.251C252.698 278.325 252.516 278.437 252.377 278.588C252.24 278.736 252.172 278.937 252.172 279.193C252.172 279.543 252.301 279.807 252.56 279.986C252.821 280.162 253.152 280.25 253.553 280.25ZM258.648 283.455C258.478 283.455 258.326 283.44 258.192 283.412C258.059 283.386 257.966 283.361 257.915 283.335L258.171 282.449C258.415 282.511 258.631 282.534 258.819 282.517C259.006 282.5 259.172 282.416 259.317 282.266C259.465 282.118 259.6 281.878 259.722 281.545L259.91 281.034L257.489 274.455H258.58L260.387 279.67H260.455L262.262 274.455H263.353L260.574 281.955C260.449 282.293 260.295 282.572 260.11 282.794C259.925 283.018 259.711 283.185 259.466 283.293C259.225 283.401 258.952 283.455 258.648 283.455Z" fill="#475467"/>
<path d="M285.916 272.273H286.973V278.511C286.973 279.068 286.871 279.541 286.666 279.93C286.462 280.32 286.173 280.615 285.801 280.817C285.429 281.018 284.99 281.119 284.484 281.119C284.007 281.119 283.582 281.033 283.21 280.859C282.838 280.683 282.546 280.433 282.332 280.109C282.119 279.786 282.013 279.401 282.013 278.955H283.053C283.053 279.202 283.114 279.418 283.236 279.602C283.361 279.784 283.531 279.926 283.747 280.028C283.963 280.131 284.209 280.182 284.484 280.182C284.788 280.182 285.047 280.118 285.26 279.99C285.473 279.862 285.635 279.675 285.746 279.428C285.859 279.178 285.916 278.872 285.916 278.511V272.273ZM293.08 278.324V274.455H294.085V281H293.08V279.892H293.011C292.858 280.224 292.619 280.507 292.296 280.74C291.972 280.97 291.563 281.085 291.068 281.085C290.659 281.085 290.296 280.996 289.977 280.817C289.659 280.635 289.409 280.362 289.227 279.999C289.046 279.632 288.955 279.17 288.955 278.614V274.455H289.96V278.545C289.96 279.023 290.094 279.403 290.361 279.688C290.631 279.972 290.975 280.114 291.392 280.114C291.642 280.114 291.896 280.05 292.155 279.922C292.416 279.794 292.635 279.598 292.811 279.334C292.99 279.07 293.08 278.733 293.08 278.324ZM296.933 277.062V281H295.927V274.455H296.899V275.477H296.984C297.138 275.145 297.37 274.878 297.683 274.676C297.995 274.472 298.399 274.369 298.893 274.369C299.336 274.369 299.724 274.46 300.057 274.642C300.389 274.821 300.647 275.094 300.832 275.46C301.017 275.824 301.109 276.284 301.109 276.841V281H300.103V276.909C300.103 276.395 299.97 275.994 299.703 275.707C299.436 275.418 299.069 275.273 298.603 275.273C298.282 275.273 297.995 275.342 297.743 275.482C297.493 275.621 297.295 275.824 297.15 276.091C297.005 276.358 296.933 276.682 296.933 277.062Z" fill="#475467"/>
<path d="M324.457 272.273H325.514V278.511C325.514 279.068 325.411 279.541 325.207 279.93C325.002 280.32 324.714 280.615 324.342 280.817C323.97 281.018 323.531 281.119 323.025 281.119C322.548 281.119 322.123 281.033 321.751 280.859C321.379 280.683 321.086 280.433 320.873 280.109C320.66 279.786 320.553 279.401 320.553 278.955H321.593C321.593 279.202 321.654 279.418 321.776 279.602C321.901 279.784 322.072 279.926 322.288 280.028C322.504 280.131 322.749 280.182 323.025 280.182C323.329 280.182 323.587 280.118 323.801 279.99C324.014 279.862 324.176 279.675 324.286 279.428C324.4 279.178 324.457 278.872 324.457 278.511V272.273ZM331.62 278.324V274.455H332.626V281H331.62V279.892H331.552C331.399 280.224 331.16 280.507 330.836 280.74C330.512 280.97 330.103 281.085 329.609 281.085C329.2 281.085 328.836 280.996 328.518 280.817C328.2 280.635 327.95 280.362 327.768 279.999C327.586 279.632 327.495 279.17 327.495 278.614V274.455H328.501V278.545C328.501 279.023 328.634 279.403 328.901 279.688C329.171 279.972 329.515 280.114 329.933 280.114C330.183 280.114 330.437 280.05 330.695 279.922C330.957 279.794 331.176 279.598 331.352 279.334C331.531 279.07 331.62 278.733 331.62 278.324ZM335.473 272.273V281H334.468V272.273H335.473Z" fill="#475467"/>
<path d="M355.899 281H354.791L357.996 272.273H359.087L362.291 281H361.183L358.575 273.653H358.507L355.899 281ZM356.308 277.591H360.774V278.528H356.308V277.591ZM367.639 278.324V274.455H368.645V281H367.639V279.892H367.571C367.418 280.224 367.179 280.507 366.855 280.74C366.531 280.97 366.122 281.085 365.628 281.085C365.219 281.085 364.855 280.996 364.537 280.817C364.219 280.635 363.969 280.362 363.787 279.999C363.605 279.632 363.514 279.17 363.514 278.614V274.455H364.52V278.545C364.52 279.023 364.653 279.403 364.92 279.688C365.19 279.972 365.534 280.114 365.952 280.114C366.202 280.114 366.456 280.05 366.714 279.922C366.976 279.794 367.195 279.598 367.371 279.334C367.55 279.07 367.639 278.733 367.639 278.324ZM373.129 283.591C372.643 283.591 372.225 283.528 371.876 283.403C371.527 283.281 371.235 283.119 371.002 282.918C370.772 282.719 370.589 282.506 370.453 282.278L371.254 281.716C371.345 281.835 371.46 281.972 371.599 282.125C371.738 282.281 371.929 282.416 372.17 282.53C372.414 282.646 372.734 282.705 373.129 282.705C373.657 282.705 374.093 282.577 374.437 282.321C374.781 282.065 374.953 281.665 374.953 281.119V279.79H374.868C374.794 279.909 374.689 280.057 374.552 280.233C374.419 280.406 374.225 280.561 373.973 280.697C373.723 280.831 373.385 280.898 372.958 280.898C372.43 280.898 371.956 280.773 371.535 280.523C371.118 280.273 370.787 279.909 370.542 279.432C370.301 278.955 370.18 278.375 370.18 277.693C370.18 277.023 370.298 276.439 370.534 275.942C370.77 275.442 371.098 275.055 371.518 274.783C371.939 274.507 372.424 274.369 372.975 274.369C373.402 274.369 373.74 274.44 373.99 274.582C374.243 274.722 374.436 274.881 374.569 275.06C374.706 275.236 374.811 275.381 374.885 275.494H374.987V274.455H375.958V281.188C375.958 281.75 375.831 282.207 375.575 282.56C375.322 282.915 374.981 283.175 374.552 283.339C374.126 283.507 373.652 283.591 373.129 283.591ZM373.095 279.994C373.498 279.994 373.839 279.902 374.118 279.717C374.396 279.533 374.608 279.267 374.752 278.92C374.897 278.574 374.97 278.159 374.97 277.676C374.97 277.205 374.899 276.788 374.757 276.428C374.615 276.067 374.404 275.784 374.126 275.58C373.848 275.375 373.504 275.273 373.095 275.273C372.669 275.273 372.314 275.381 372.029 275.597C371.748 275.812 371.537 276.102 371.395 276.466C371.255 276.83 371.186 277.233 371.186 277.676C371.186 278.131 371.257 278.533 371.399 278.882C371.544 279.229 371.757 279.501 372.038 279.7C372.322 279.896 372.674 279.994 373.095 279.994Z" fill="#475467"/>
<path d="M400.491 274.455C400.44 274.023 400.233 273.688 399.869 273.449C399.505 273.21 399.059 273.091 398.531 273.091C398.145 273.091 397.807 273.153 397.517 273.278C397.23 273.403 397.005 273.575 396.843 273.794C396.684 274.013 396.605 274.261 396.605 274.54C396.605 274.773 396.66 274.973 396.771 275.141C396.885 275.305 397.03 275.443 397.206 275.554C397.382 275.662 397.566 275.751 397.76 275.822C397.953 275.891 398.13 275.946 398.292 275.989L399.179 276.227C399.406 276.287 399.659 276.369 399.937 276.474C400.218 276.58 400.487 276.723 400.743 276.905C401.001 277.084 401.214 277.314 401.382 277.595C401.549 277.876 401.633 278.222 401.633 278.631C401.633 279.102 401.51 279.528 401.262 279.909C401.018 280.29 400.66 280.592 400.189 280.817C399.72 281.041 399.15 281.153 398.48 281.153C397.855 281.153 397.314 281.053 396.856 280.851C396.402 280.649 396.044 280.368 395.782 280.007C395.524 279.646 395.378 279.227 395.343 278.75H396.434C396.463 279.08 396.574 279.352 396.767 279.568C396.963 279.781 397.21 279.94 397.508 280.045C397.809 280.148 398.133 280.199 398.48 280.199C398.883 280.199 399.245 280.134 399.566 280.003C399.887 279.869 400.142 279.685 400.329 279.449C400.517 279.21 400.61 278.932 400.61 278.614C400.61 278.324 400.53 278.088 400.368 277.906C400.206 277.724 399.993 277.577 399.728 277.463C399.464 277.349 399.179 277.25 398.872 277.165L397.798 276.858C397.116 276.662 396.576 276.382 396.179 276.018C395.781 275.655 395.582 275.179 395.582 274.591C395.582 274.102 395.714 273.676 395.978 273.312C396.245 272.946 396.603 272.662 397.052 272.46C397.504 272.256 398.008 272.153 398.565 272.153C399.128 272.153 399.628 272.254 400.065 272.456C400.503 272.655 400.849 272.928 401.105 273.274C401.363 273.621 401.5 274.014 401.514 274.455H400.491ZM405.979 281.136C405.348 281.136 404.804 280.997 404.347 280.719C403.892 280.438 403.541 280.045 403.294 279.543C403.05 279.037 402.928 278.449 402.928 277.778C402.928 277.108 403.05 276.517 403.294 276.006C403.541 275.491 403.885 275.091 404.325 274.804C404.769 274.514 405.286 274.369 405.876 274.369C406.217 274.369 406.554 274.426 406.886 274.54C407.219 274.653 407.521 274.838 407.794 275.094C408.067 275.347 408.284 275.682 408.446 276.099C408.608 276.517 408.689 277.031 408.689 277.642V278.068H403.644V277.199H407.666C407.666 276.83 407.592 276.5 407.445 276.21C407.3 275.92 407.092 275.692 406.822 275.524C406.555 275.357 406.24 275.273 405.876 275.273C405.476 275.273 405.129 275.372 404.837 275.571C404.547 275.767 404.324 276.023 404.168 276.338C404.011 276.653 403.933 276.991 403.933 277.352V277.932C403.933 278.426 404.019 278.845 404.189 279.189C404.362 279.53 404.602 279.79 404.909 279.969C405.216 280.145 405.572 280.233 405.979 280.233C406.243 280.233 406.482 280.196 406.695 280.122C406.911 280.045 407.097 279.932 407.253 279.781C407.409 279.628 407.53 279.437 407.615 279.21L408.587 279.483C408.484 279.812 408.313 280.102 408.071 280.352C407.83 280.599 407.531 280.793 407.176 280.932C406.821 281.068 406.422 281.136 405.979 281.136ZM410.219 283.455V274.455H411.19V275.494H411.31C411.384 275.381 411.486 275.236 411.617 275.06C411.75 274.881 411.94 274.722 412.188 274.582C412.438 274.44 412.776 274.369 413.202 274.369C413.753 274.369 414.239 274.507 414.659 274.783C415.08 275.058 415.408 275.449 415.644 275.955C415.879 276.46 415.997 277.057 415.997 277.744C415.997 278.438 415.879 279.038 415.644 279.547C415.408 280.053 415.081 280.445 414.663 280.723C414.246 280.999 413.764 281.136 413.219 281.136C412.798 281.136 412.462 281.067 412.209 280.928C411.956 280.786 411.761 280.625 411.625 280.446C411.489 280.264 411.384 280.114 411.31 279.994H411.224V283.455H410.219ZM411.207 277.727C411.207 278.222 411.28 278.658 411.425 279.036C411.57 279.411 411.781 279.705 412.06 279.918C412.338 280.128 412.679 280.233 413.082 280.233C413.503 280.233 413.854 280.122 414.135 279.901C414.419 279.676 414.632 279.375 414.774 278.997C414.919 278.616 414.992 278.193 414.992 277.727C414.992 277.267 414.92 276.852 414.778 276.483C414.639 276.111 414.428 275.817 414.144 275.601C413.862 275.382 413.509 275.273 413.082 275.273C412.673 275.273 412.33 275.376 412.051 275.584C411.773 275.788 411.563 276.075 411.42 276.445C411.278 276.811 411.207 277.239 411.207 277.727Z" fill="#475467"/>
<path d="M442.91 276.636C442.91 277.557 442.744 278.352 442.411 279.023C442.079 279.693 441.623 280.21 441.043 280.574C440.464 280.938 439.802 281.119 439.057 281.119C438.313 281.119 437.651 280.938 437.072 280.574C436.492 280.21 436.036 279.693 435.704 279.023C435.371 278.352 435.205 277.557 435.205 276.636C435.205 275.716 435.371 274.92 435.704 274.25C436.036 273.58 436.492 273.062 437.072 272.699C437.651 272.335 438.313 272.153 439.057 272.153C439.802 272.153 440.464 272.335 441.043 272.699C441.623 273.062 442.079 273.58 442.411 274.25C442.744 274.92 442.91 275.716 442.91 276.636ZM441.887 276.636C441.887 275.881 441.761 275.243 441.508 274.723C441.258 274.203 440.918 273.81 440.489 273.543C440.063 273.276 439.586 273.142 439.057 273.142C438.529 273.142 438.05 273.276 437.621 273.543C437.195 273.81 436.856 274.203 436.603 274.723C436.353 275.243 436.228 275.881 436.228 276.636C436.228 277.392 436.353 278.03 436.603 278.55C436.856 279.07 437.195 279.463 437.621 279.73C438.05 279.997 438.529 280.131 439.057 280.131C439.586 280.131 440.063 279.997 440.489 279.73C440.918 279.463 441.258 279.07 441.508 278.55C441.761 278.03 441.887 277.392 441.887 276.636ZM447.209 281.136C446.596 281.136 446.067 280.991 445.624 280.702C445.181 280.412 444.84 280.013 444.601 279.504C444.363 278.996 444.244 278.415 444.244 277.761C444.244 277.097 444.366 276.51 444.61 276.001C444.857 275.49 445.201 275.091 445.641 274.804C446.084 274.514 446.601 274.369 447.192 274.369C447.653 274.369 448.067 274.455 448.437 274.625C448.806 274.795 449.109 275.034 449.344 275.341C449.58 275.648 449.726 276.006 449.783 276.415H448.778C448.701 276.116 448.53 275.852 448.266 275.622C448.005 275.389 447.653 275.273 447.209 275.273C446.817 275.273 446.474 275.375 446.178 275.58C445.886 275.781 445.657 276.067 445.492 276.436C445.33 276.803 445.249 277.233 445.249 277.727C445.249 278.233 445.329 278.673 445.488 279.048C445.65 279.423 445.877 279.714 446.17 279.922C446.465 280.129 446.812 280.233 447.209 280.233C447.471 280.233 447.708 280.188 447.921 280.097C448.134 280.006 448.315 279.875 448.462 279.705C448.61 279.534 448.715 279.33 448.778 279.091H449.783C449.726 279.477 449.586 279.825 449.361 280.135C449.14 280.442 448.846 280.686 448.479 280.868C448.116 281.047 447.692 281.136 447.209 281.136ZM454.1 274.455V275.307H450.708V274.455H454.1ZM451.697 272.886H452.702V279.125C452.702 279.409 452.744 279.622 452.826 279.764C452.911 279.903 453.019 279.997 453.15 280.045C453.283 280.091 453.424 280.114 453.572 280.114C453.682 280.114 453.773 280.108 453.844 280.097C453.915 280.082 453.972 280.071 454.015 280.062L454.219 280.966C454.151 280.991 454.056 281.017 453.934 281.043C453.812 281.071 453.657 281.085 453.469 281.085C453.185 281.085 452.907 281.024 452.634 280.902C452.364 280.78 452.14 280.594 451.961 280.344C451.785 280.094 451.697 279.778 451.697 279.398V272.886Z" fill="#475467"/>
<path d="M480.702 272.273V281H479.68L474.924 274.148H474.839V281H473.782V272.273H474.805L479.577 279.142H479.663V272.273H480.702ZM485.34 281.136C484.749 281.136 484.23 280.996 483.784 280.714C483.341 280.433 482.995 280.04 482.745 279.534C482.497 279.028 482.374 278.437 482.374 277.761C482.374 277.08 482.497 276.484 482.745 275.976C482.995 275.467 483.341 275.072 483.784 274.791C484.23 274.51 484.749 274.369 485.34 274.369C485.931 274.369 486.448 274.51 486.891 274.791C487.337 275.072 487.684 275.467 487.931 275.976C488.181 276.484 488.306 277.08 488.306 277.761C488.306 278.437 488.181 279.028 487.931 279.534C487.684 280.04 487.337 280.433 486.891 280.714C486.448 280.996 485.931 281.136 485.34 281.136ZM485.34 280.233C485.789 280.233 486.158 280.118 486.448 279.888C486.738 279.658 486.952 279.355 487.091 278.98C487.23 278.605 487.3 278.199 487.3 277.761C487.3 277.324 487.23 276.916 487.091 276.538C486.952 276.161 486.738 275.855 486.448 275.622C486.158 275.389 485.789 275.273 485.34 275.273C484.891 275.273 484.522 275.389 484.232 275.622C483.942 275.855 483.728 276.161 483.588 276.538C483.449 276.916 483.38 277.324 483.38 277.761C483.38 278.199 483.449 278.605 483.588 278.98C483.728 279.355 483.942 279.658 484.232 279.888C484.522 280.118 484.891 280.233 485.34 280.233ZM494.959 274.455L492.538 281H491.516L489.095 274.455H490.186L491.993 279.67H492.061L493.868 274.455H494.959Z" fill="#475467"/>
<path d="M517.094 281H514.401V272.273H517.213C518.06 272.273 518.784 272.447 519.386 272.797C519.989 273.143 520.45 273.642 520.771 274.293C521.092 274.94 521.253 275.716 521.253 276.619C521.253 277.528 521.091 278.311 520.767 278.967C520.443 279.621 519.972 280.124 519.352 280.476C518.733 280.825 517.98 281 517.094 281ZM515.457 280.062H517.026C517.747 280.062 518.345 279.923 518.82 279.645C519.294 279.366 519.648 278.97 519.881 278.456C520.114 277.942 520.23 277.33 520.23 276.619C520.23 275.915 520.115 275.308 519.885 274.8C519.655 274.288 519.311 273.896 518.854 273.624C518.396 273.348 517.827 273.21 517.145 273.21H515.457V280.062ZM525.634 281.136C525.003 281.136 524.459 280.997 524.001 280.719C523.547 280.438 523.196 280.045 522.949 279.543C522.705 279.037 522.582 278.449 522.582 277.778C522.582 277.108 522.705 276.517 522.949 276.006C523.196 275.491 523.54 275.091 523.98 274.804C524.423 274.514 524.94 274.369 525.531 274.369C525.872 274.369 526.209 274.426 526.541 274.54C526.874 274.653 527.176 274.838 527.449 275.094C527.722 275.347 527.939 275.682 528.101 276.099C528.263 276.517 528.344 277.031 528.344 277.642V278.068H523.298V277.199H527.321C527.321 276.83 527.247 276.5 527.099 276.21C526.955 275.92 526.747 275.692 526.477 275.524C526.21 275.357 525.895 275.273 525.531 275.273C525.131 275.273 524.784 275.372 524.491 275.571C524.202 275.767 523.979 276.023 523.822 276.338C523.666 276.653 523.588 276.991 523.588 277.352V277.932C523.588 278.426 523.673 278.845 523.844 279.189C524.017 279.53 524.257 279.79 524.564 279.969C524.871 280.145 525.227 280.233 525.634 280.233C525.898 280.233 526.136 280.196 526.349 280.122C526.565 280.045 526.751 279.932 526.908 279.781C527.064 279.628 527.185 279.437 527.27 279.21L528.241 279.483C528.139 279.812 527.967 280.102 527.726 280.352C527.484 280.599 527.186 280.793 526.831 280.932C526.476 281.068 526.077 281.136 525.634 281.136ZM532.533 281.136C531.919 281.136 531.391 280.991 530.947 280.702C530.504 280.412 530.163 280.013 529.925 279.504C529.686 278.996 529.567 278.415 529.567 277.761C529.567 277.097 529.689 276.51 529.933 276.001C530.18 275.49 530.524 275.091 530.964 274.804C531.408 274.514 531.925 274.369 532.516 274.369C532.976 274.369 533.391 274.455 533.76 274.625C534.129 274.795 534.432 275.034 534.668 275.341C534.903 275.648 535.05 276.006 535.107 276.415H534.101C534.024 276.116 533.854 275.852 533.589 275.622C533.328 275.389 532.976 275.273 532.533 275.273C532.141 275.273 531.797 275.375 531.501 275.58C531.209 275.781 530.98 276.067 530.815 276.436C530.653 276.803 530.572 277.233 530.572 277.727C530.572 278.233 530.652 278.673 530.811 279.048C530.973 279.423 531.2 279.714 531.493 279.922C531.788 280.129 532.135 280.233 532.533 280.233C532.794 280.233 533.031 280.188 533.244 280.097C533.457 280.006 533.638 279.875 533.786 279.705C533.933 279.534 534.038 279.33 534.101 279.091H535.107C535.05 279.477 534.909 279.825 534.685 280.135C534.463 280.442 534.169 280.686 533.803 280.868C533.439 281.047 533.016 281.136 532.533 281.136Z" fill="#475467"/>
<path d="M273.461 298.273H275.059L277.837 305.057H277.939L280.718 298.273H282.316V307H281.063V300.685H280.982L278.408 306.987H277.368L274.795 300.68H274.714V307H273.461V298.273ZM286.885 307.132C286.271 307.132 285.736 306.991 285.279 306.71C284.821 306.429 284.466 306.036 284.213 305.53C283.96 305.024 283.834 304.433 283.834 303.757C283.834 303.078 283.96 302.484 284.213 301.976C284.466 301.467 284.821 301.072 285.279 300.791C285.736 300.51 286.271 300.369 286.885 300.369C287.499 300.369 288.034 300.51 288.492 300.791C288.949 301.072 289.304 301.467 289.557 301.976C289.81 302.484 289.936 303.078 289.936 303.757C289.936 304.433 289.81 305.024 289.557 305.53C289.304 306.036 288.949 306.429 288.492 306.71C288.034 306.991 287.499 307.132 286.885 307.132ZM286.889 306.062C287.287 306.062 287.617 305.957 287.878 305.747C288.139 305.537 288.333 305.257 288.458 304.908C288.585 304.558 288.649 304.173 288.649 303.753C288.649 303.335 288.585 302.952 288.458 302.602C288.333 302.25 288.139 301.967 287.878 301.754C287.617 301.541 287.287 301.435 286.889 301.435C286.489 301.435 286.156 301.541 285.892 301.754C285.631 301.967 285.436 302.25 285.308 302.602C285.183 302.952 285.121 303.335 285.121 303.753C285.121 304.173 285.183 304.558 285.308 304.908C285.436 305.257 285.631 305.537 285.892 305.747C286.156 305.957 286.489 306.062 286.889 306.062ZM292.633 303.114V307H291.358V300.455H292.581V301.52H292.662C292.813 301.173 293.049 300.895 293.37 300.685C293.694 300.474 294.101 300.369 294.593 300.369C295.039 300.369 295.43 300.463 295.765 300.651C296.1 300.835 296.36 301.111 296.545 301.477C296.729 301.844 296.822 302.297 296.822 302.837V307H295.547V302.99C295.547 302.516 295.424 302.145 295.177 301.878C294.93 301.608 294.59 301.473 294.158 301.473C293.863 301.473 293.6 301.537 293.37 301.665C293.143 301.793 292.962 301.98 292.829 302.227C292.698 302.472 292.633 302.767 292.633 303.114ZM301.586 300.455V301.477H298.01V300.455H301.586ZM298.969 298.886H300.243V305.078C300.243 305.325 300.28 305.511 300.354 305.636C300.428 305.759 300.523 305.842 300.64 305.888C300.759 305.93 300.888 305.952 301.028 305.952C301.13 305.952 301.219 305.945 301.296 305.93C301.373 305.916 301.432 305.905 301.475 305.896L301.705 306.949C301.631 306.977 301.526 307.006 301.39 307.034C301.253 307.065 301.083 307.082 300.878 307.085C300.543 307.091 300.231 307.031 299.941 306.906C299.651 306.781 299.417 306.588 299.238 306.327C299.059 306.065 298.969 305.737 298.969 305.342V298.886ZM304.41 303.114V307H303.136V298.273H304.393V301.52H304.474C304.627 301.168 304.862 300.888 305.177 300.68C305.492 300.473 305.904 300.369 306.413 300.369C306.862 300.369 307.254 300.462 307.589 300.646C307.927 300.831 308.188 301.107 308.373 301.473C308.561 301.837 308.654 302.291 308.654 302.837V307H307.38V302.99C307.38 302.51 307.257 302.138 307.009 301.874C306.762 301.607 306.419 301.473 305.978 301.473C305.677 301.473 305.407 301.537 305.169 301.665C304.933 301.793 304.747 301.98 304.61 302.227C304.477 302.472 304.41 302.767 304.41 303.114Z" fill="#475467"/>
<mask id="mask0_186_2893" style="mask-type:alpha" maskUnits="userSpaceOnUse" x="70" y="46" width="490" height="214">
<rect width="490" height="214" transform="translate(70 46)" fill="url(#paint0_linear_186_2893)"/>
</mask>
<g mask="url(#mask0_186_2893)">
<path opacity="0.1" d="M81.1048 110.756L70 115.104V260H560V62.2917L549.589 69.5125H538.484L533.279 76.2738H526.339C524.488 77.4007 520.647 79.6545 520.092 79.6545C519.537 79.6545 515.928 81.0068 514.193 81.6829L499.271 83.7113L490.595 86.4158L476.714 83.7113L469.426 81.6829L459.016 86.4158H448.258L439.235 81.6829C435.765 81.0068 428.686 79.6545 428.13 79.6545C427.575 79.6545 423.041 78.3022 420.843 77.6261H415.29L402.103 79.6545L390.652 81.6829L385.446 86.4158L369.83 88.4442L361.848 90.4726L352.826 93.8532L344.15 101.967H340.333L329.922 99.9384L319.858 93.8532L311.183 90.4726H305.977L296.955 88.4442L284.115 90.4726H271.969L259.823 93.8532L247.677 97.91L238.654 101.967L228.938 103.995L215.751 101.967L205.34 103.995L194.929 106.024L185.212 103.995L172.025 108.728L160.921 106.024L149.816 108.728H139.058L127.606 110.756H115.807L104.008 112.785L92.5567 108.728L81.1048 110.756Z" fill="#155EEF"/>
</g>
<path d="M70 115.104L81.1048 110.756L92.5567 108.728L104.008 112.785L115.807 110.756H127.606L139.058 108.728H149.816L160.921 106.024L172.025 108.728L185.212 103.995L194.929 106.024L205.34 103.995L215.751 101.967L228.938 103.995L238.654 101.967L247.677 97.91L259.823 93.8532L271.969 90.4726H284.115L296.955 88.4442L305.977 90.4726H311.183L319.858 93.8532L329.922 99.9384L340.333 101.967H344.15L352.826 93.8532L361.848 90.4726L369.83 88.4442L385.446 86.4158L390.652 81.6829L402.103 79.6545L415.29 77.6261H420.843C423.041 78.3022 427.575 79.6545 428.13 79.6545C428.686 79.6545 435.765 81.0068 439.235 81.6829L448.258 86.4158H459.016L469.426 81.6829L476.714 83.7113L490.595 86.4158L499.271 83.7113L514.193 81.6829C515.928 81.0068 519.537 79.6545 520.092 79.6545C520.647 79.6545 524.488 77.4007 526.339 76.2738H533.279L538.484 69.5125H549.589L560 62.2917" stroke="#155EEF" stroke-width="2" stroke-linecap="round" stroke-linejoin="round"/>
<defs>
<linearGradient id="paint0_linear_186_2893" x1="245" y1="0" x2="245" y2="214" gradientUnits="userSpaceOnUse">
<stop/>
<stop offset="1" stop-opacity="0"/>
</linearGradient>
</defs>
</svg>
